# xmcd CD database file
#
# Track frame offsets:
#	150
#	13770
#	25532
#	36100
#	46657
#	60035
#	76000
#	88115
#	101397
#	118542
#	131782
#	142622
#	153087
#	166817
#	178662
#	194840
#	209647
#	224490
#	238077
#	259640
#	274587
#	293002
#	312950
#	325672
#
# Disc length: 4566 seconds
#
# Revision: 8
# Processed by: cddbd v1.5.2PL0 Copyright (c) Steve Scherf et al.
# Submitted via: CDex 1.79
#
DISCID=3d11d418
DTITLE=Sony Music - Country: The American Tradition Disc 2
DYEAR=0
DGENRE=Country
TTITLE0=Jimmy Dean - Big Bad John
TTITLE1=Johnny Cash - Ring of Fire
TTITLE2=The Statler Brothers - Flowers on the Wall
TTITLE3=Flatt and Scruggs - Foggy Mountain Breakdown
TTITLE4=David Houston - Almost Persuaded
TTITLE5=The Byrds - Hickory Wind
TTITLE6=Tammy Wynette - Stand By Your Man
TTITLE7=Lynn Anderson - Rose Garden (3)
TTITLE8=Kris Kristofferson - Loving Her Was Easier (Than Anything I'll Ever Do Again)
TTITLE9=Charlie Rich - Behind Closed Doors
TTITLE10=Tanya Tucker - Would You Lay with Me (In a Field of Stone)
TTITLE11=Willie Nelson - Blue Eyes Crying in the Rain
TTITLE12=George Jones and Tammy Wynette - Golden Ring
TTITLE13=Johnny Paycheck - Take This Job and Shove It
TTITLE14=Charlie Daniels - The Devil Went Down to Georgia (2)
TTITLE15=George Jones - He Stopped Loving Her Today
TTITLE16=Rosanne Cash - Seven Year Ache
TTITLE17=Ricky Skaggs - Crying My Heart Out Over You
TTITLE18=Willie Nelson - Pancho and Lefty
TTITLE19=Rodney Crowell - I Couldn't Leave You If I Tried
TTITLE20=Mary Chapin Carpenter - He Thinks He'll Keep Her
TTITLE21=Patty Loveless - How Can I Help You Say Goodbye
TTITLE22=Joe Diffie - Third Rock from the Sun
TTITLE23=Dixie Chicks - Wide Open Spaces (3)
EXTD=YEAR: 0
EXTT0=
EXTT1=
EXTT2=
EXTT3=
EXTT4=
EXTT5=
EXTT6=
EXTT7=
EXTT8=
EXTT9=
EXTT10=
EXTT11=
EXTT12=
EXTT13=
EXTT14=
EXTT15=
EXTT16=
EXTT17=
EXTT18=
EXTT19=
EXTT20=
EXTT21=
EXTT22=
EXTT23=
PLAYORDER=
